<svg xmlns="http://www.w3.org/2000/svg" height="100" width="100" viewBox="0 0 64 64" id="boy"><path fill="#ffcbbe" d="M19 30h-2.5a3.5 3.5 0 0 1-3.5-3.5 3.5 3.5 0 0 1 3.5-3.5H19zm26 0h2.5a3.5 3.5 0 0 0 3.5-3.5 3.5 3.5 0 0 0-3.5-3.5H45z"></path><path fill="#3780ea" d="M50 61H14l.43-8.6A12 12 0 0 1 26.415 41h11.17A12 12 0 0 1 49.57 52.4Z"></path><path fill="#ffcbbe" d="M38 40c0 3.314-6 10-6 10s-6-6.686-6-10a6 6 0 0 1 12 0Z"></path><path fill="#ffddce" d="M32 42a14 14 0 0 1-14-14V15l6-5h16l6 5v13a14 14 0 0 1-14 14Z"></path><path fill="#ffcbbe" d="M18 30h-1.5a3.5 3.5 0 0 1-3.5-3.5 3.5 3.5 0 0 1 3.5-3.5H18zm28 0h1.5a3.5 3.5 0 0 0 3.5-3.5 3.5 3.5 0 0 0-3.5-3.5H46z"></path><path fill="#3e3d42" d="M47 23h-2l-2.342-4.683A6 6 0 0 0 37.292 15H26.325a6 6 0 0 0-5.088 2.82L18 23h-1V12.854a3 3 0 0 1 1.658-2.683L19 10l-1-3h4l-1-4 14 3V3l9.657 5.657A8 8 0 0 1 47 14.314Z"></path><path d="M40.51 40.34A15.051 15.051 0 0 0 46.7 31h.8a4.507 4.507 0 0 0 4.5-4.5 4.4 4.4 0 0 0-1.32-3.17A4.345 4.345 0 0 0 48 22.05v-7.74a8.942 8.942 0 0 0-2.64-6.36 1.08 1.08 0 0 0-.2-.16l-9.65-5.65A1 1 0 0 0 34 3v1.76L21.21 2.02a1.006 1.006 0 0 0-.93.29.992.992 0 0 0-.25.93L20.72 6H18a.983.983 0 0 0-.81.42 1 1 0 0 0-.14.9l.74 2.2A3.962 3.962 0 0 0 16 12.85v9.2a4.334 4.334 0 0 0-2.67 1.27A4.406 4.406 0 0 0 12 26.5a4.507 4.507 0 0 0 4.5 4.5h.8a15.051 15.051 0 0 0 6.19 9.34 13.074 13.074 0 0 0-10.06 12.01l-.43 8.6a1.025 1.025 0 0 0 .28.74.975.975 0 0 0 .72.31h36a.975.975 0 0 0 .72-.31 1.025 1.025 0 0 0 .28-.74l-.43-8.6a13.074 13.074 0 0 0-10.06-12.01ZM47 28v-4h.5a2.509 2.509 0 0 1 2.5 2.5 2.5 2.5 0 0 1-2.5 2.5h-.55c.02-.33.05-.66.05-1Zm-30.5 1a2.5 2.5 0 0 1-2.5-2.5 2.509 2.509 0 0 1 2.5-2.5h.5v4c0 .34.03.67.05 1Zm1.5-7v-9.15a1.967 1.967 0 0 1 1.11-1.78l.34-.18a1 1 0 0 0 .5-1.21L19.39 8H22a1 1 0 0 0 .79-.38 1.022 1.022 0 0 0 .18-.86l-.61-2.45 12.43 2.67A1 1 0 0 0 36 6V4.74l8.04 4.71A6.989 6.989 0 0 1 46 14.31V22h-.38l-2.07-4.13A6.95 6.95 0 0 0 37.29 14H26.33a6.969 6.969 0 0 0-5.94 3.29.826.826 0 0 0-.07.13L18.34 22Zm1 6v-4a1.011 1.011 0 0 0 .92-.6l2.2-5.11A4.969 4.969 0 0 1 26.33 16h10.96a4.968 4.968 0 0 1 4.47 2.76l2.35 4.69A.977.977 0 0 0 45 24v4a13 13 0 0 1-26 0Zm17.22 14.38A35.247 35.247 0 0 1 32 48.46a35.46 35.46 0 0 1-4.21-6.07A15.035 15.035 0 0 0 32 43a14.7 14.7 0 0 0 4.22-.62ZM15.05 60l.38-7.55a11.047 11.047 0 0 1 10.01-10.4c1.37 3.63 5.62 8.4 5.82 8.62a.995.995 0 0 0 1.48 0c.2-.22 4.42-4.95 5.81-8.62a11.048 11.048 0 0 1 10.02 10.4l.38 7.55Z"></path><path d="M26 27a1 1 0 0 0 1-1v-2a1 1 0 0 0-2 0v2a1 1 0 0 0 1 1zm12 0a1 1 0 0 0 1-1v-2a1 1 0 0 0-2 0v2a1 1 0 0 0 1 1zm1 5h-2c0 1.626-2.29 3-5 3s-5-1.374-5-3h-2c0 2.8 3.075 5 7 5s7-2.2 7-5z"></path></svg>